<mxfile host="app.diagrams.net" modified="2023-10-23T22:26:59.998Z" agent="Mozilla/5.0 (Windows NT 10.0; Win64; x64) AppleWebKit/537.36 (KHTML, like Gecko) Chrome/118.0.0.0 Safari/537.36" version="22.0.6" etag="yuUu_doyuCyqk1iPZ8FI" type="github">
  <diagram name="PÃ¡gina-1" id="erIOSq61pK6I57Ui1vpf">
    <mxGraphModel>
      <root>
        <mxCell id="0" />
        <mxCell id="1" parent="0" />
      </root>
    </mxGraphModel>
  </diagram>
</mxfile>
